<?xml version="1.0" encoding="UTF-8"?>
<svg version="1.1" xmlns="http://www.w3.org/2000/svg" width="50" height="25">
<path d="M0 0 C4.60865122 -0.67720126 9.28506409 -0.46277249 13.9375 -0.4375 C15.88946289 -0.4674707 15.88946289 -0.4674707 17.88085938 -0.49804688 C19.12544922 -0.49740234 20.37003906 -0.49675781 21.65234375 -0.49609375 C22.79695068 -0.49794678 23.94155762 -0.4997998 25.12084961 -0.50170898 C28 -0 28 -0 29.69750977 1.98413086 C30.12733154 2.64936768 30.55715332 3.31460449 31 4 C34.10197397 4.80946422 34.10197397 4.80946422 37 5 C37 6.32 37 7.64 37 9 C36.34 9 35.68 9 35 9 C35.66 10.65 36.32 12.3 37 14 C37 17.63 37 21.26 37 25 C21.82 25 6.64 25 -9 25 C-9 8 -9 8 -8 5 C-6.00428677 4.32060826 -4.00405227 3.65438441 -2 3 C-1.34 2.01 -0.68 1.02 0 0 Z " fill="#262425" transform="translate(11,0)"/>
<path d="M0 0 C-0.5259375 0.86625 -0.5259375 0.86625 -1.0625 1.75 C-2.19808208 4.475397 -1.73268165 5.21580974 -1 8 C-0.91082801 9.56050976 -0.8698329 11.12445308 -0.875 12.6875 C-0.87113281 13.86892578 -0.87113281 13.86892578 -0.8671875 15.07421875 C-1 17 -1 17 -2 18 C-4.95705321 18.08868299 -7.89065056 18.11520296 -10.84765625 18.09765625 C-12.17729652 18.09553383 -12.17729652 18.09553383 -13.53379822 18.09336853 C-16.37673254 18.08775215 -19.21958931 18.07519691 -22.0625 18.0625 C-23.98502491 18.05748711 -25.90755104 18.05292384 -27.83007812 18.04882812 C-32.55341549 18.03777741 -37.27669458 18.02050183 -42 18 C-42.33 16.35 -42.66 14.7 -43 13 C-41.54119891 13.14107747 -40.08296449 13.28802415 -38.625 13.4375 C-37.40683594 13.55931641 -37.40683594 13.55931641 -36.1640625 13.68359375 C-34 14 -34 14 -32 15 C-28.6720413 15.23799705 -25.33553913 15.18518365 -22 15.1875 C-20.6078125 15.20586914 -20.6078125 15.20586914 -19.1875 15.22460938 C-17.8571875 15.22750977 -17.8571875 15.22750977 -16.5 15.23046875 C-15.6853125 15.23457764 -14.870625 15.23868652 -14.03125 15.24291992 C-11.77302166 15.18511386 -11.77302166 15.18511386 -10 13 C-7.375 12.375 -7.375 12.375 -5 12 C-5 11.34 -5 10.68 -5 10 C-6.98 10 -8.96 10 -11 10 C-11 10.66 -11 11.32 -11 12 C-18.26 12 -25.52 12 -33 12 C-33 11.34 -33 10.68 -33 10 C-34.98 10 -36.96 10 -39 10 C-39 10.66 -39 11.32 -39 12 C-39.99 12 -40.98 12 -42 12 C-42 9.36 -42 6.72 -42 4 C-35.23731255 1.98506176 -28.84472475 1.6136278 -21.8125 1.4375 C-19.69390402 1.37733443 -17.57540415 1.31365911 -15.45703125 1.24609375 C-14.52866455 1.22216553 -13.60029785 1.1982373 -12.64379883 1.17358398 C-8.3278962 0.89021463 -4.36202931 -0.12462941 0 0 Z " fill="#4F4C4C" transform="translate(47,6)"/>
<path d="M0 0 C1.29228516 -0.00644531 2.58457031 -0.01289063 3.91601562 -0.01953125 C11.0190827 0.06198543 11.0190827 0.06198543 13.9375 0.625 C15.63061523 2.61572266 15.63061523 2.61572266 16.9375 4.625 C20.03947397 5.43446422 20.03947397 5.43446422 22.9375 5.625 C22.9375 6.945 22.9375 8.265 22.9375 9.625 C22.2775 9.295 21.6175 8.965 20.9375 8.625 C21.2675 7.965 21.5975 7.305 21.9375 6.625 C21.35774414 6.76647461 20.77798828 6.90794922 20.18066406 7.05371094 C13.29091366 8.59894861 6.73220203 8.92770351 -0.3125 8.875 C-1.36179687 8.88273438 -2.41109375 8.89046875 -3.4921875 8.8984375 C-8.73213223 8.88517182 -13.17129615 8.75014374 -18.0625 6.625 C-14.89183665 -1.74908647 -7.90391365 -0.19769669 0 0 Z " fill="#020202" transform="translate(25.0625,-0.625)"/>
<path d="M0 0 C0.02689216 1.47906892 0.04634621 2.95827483 0.0625 4.4375 C0.07410156 5.26121094 0.08570313 6.08492187 0.09765625 6.93359375 C0 9 0 9 -1 10 C-3.95705321 10.08868299 -6.89065056 10.11520296 -9.84765625 10.09765625 C-11.17729652 10.09553383 -11.17729652 10.09553383 -12.53379822 10.09336853 C-15.37673254 10.08775215 -18.21958931 10.07519691 -21.0625 10.0625 C-22.98502491 10.05748711 -24.90755104 10.05292384 -26.83007812 10.04882812 C-31.55341549 10.03777741 -36.27669458 10.02050183 -41 10 C-41.33 8.35 -41.66 6.7 -42 5 C-40.54119891 5.14107747 -39.08296449 5.28802415 -37.625 5.4375 C-36.40683594 5.55931641 -36.40683594 5.55931641 -35.1640625 5.68359375 C-33 6 -33 6 -31 7 C-27.6720413 7.23799705 -24.33553913 7.18518365 -21 7.1875 C-19.6078125 7.20586914 -19.6078125 7.20586914 -18.1875 7.22460938 C-16.8571875 7.22750977 -16.8571875 7.22750977 -15.5 7.23046875 C-14.6853125 7.23457764 -13.870625 7.23868652 -13.03125 7.24291992 C-10.77302166 7.18511386 -10.77302166 7.18511386 -9 5 C-6.375 4.375 -6.375 4.375 -4 4 C-4 3.34 -4 2.68 -4 2 C-5.98 2 -7.96 2 -10 2 C-10.33 2.66 -10.66 3.32 -11 4 C-11 3.34 -11 2.68 -11 2 C-11.99 1.67 -12.98 1.34 -14 1 C-11.85420251 0.83287252 -9.70836101 0.66631 -7.5625 0.5 C-5.77005859 0.36078125 -5.77005859 0.36078125 -3.94140625 0.21875 C-1 0 -1 0 0 0 Z " fill="#353333" transform="translate(46,14)"/>
<path d="M0 0 C-0.309375 0.5775 -0.61875 1.155 -0.9375 1.75 C-1.92871384 3.84904107 -2.47548801 5.75074138 -3 8 C-7.43801996 7.89035323 -11.87517436 7.75966846 -16.3125 7.625 C-17.57513672 7.5940625 -18.83777344 7.563125 -20.13867188 7.53125 C-21.34716797 7.49257812 -22.55566406 7.45390625 -23.80078125 7.4140625 C-25.47394409 7.36693115 -25.47394409 7.36693115 -27.1809082 7.31884766 C-30 7 -30 7 -33 5 C-25.74 5 -18.48 5 -11 5 C-10.67 3.68 -10.34 2.36 -10 1 C-6.59437148 0.22157062 -3.49234244 -0.09978121 0 0 Z " fill="#2F2D2D" transform="translate(47,6)"/>
<path d="M0 0 C0.66 0 1.32 0 2 0 C4 5 4 5 4 16 C-11.18 16 -26.36 16 -42 16 C-42 11.71 -42 7.42 -42 3 C-41.34 2.67 -40.68 2.34 -40 2 C-40.03255208 3.953125 -40.06510417 5.90625 -40.09765625 7.859375 C-40.05530256 10.33999176 -40.05530256 10.33999176 -39 14 C-25.8 14 -12.6 14 1 14 C1.13569404 6.73174153 1.13569404 6.73174153 0 0 Z " fill="#000000" transform="translate(44,9)"/>
<path d="M0 0 C7.92 0 15.84 0 24 0 C23.01 1.485 23.01 1.485 22 3 C19.96875 3.35644531 19.96875 3.35644531 17.5 3.328125 C16.613125 3.32296875 15.72625 3.3178125 14.8125 3.3125 C13.884375 3.291875 12.95625 3.27125 12 3.25 C11.071875 3.24484375 10.14375 3.2396875 9.1875 3.234375 C2.30877976 3.15438988 2.30877976 3.15438988 0 2 C0 1.34 0 0.68 0 0 Z " fill="#060606" transform="translate(13,19)"/>
<path d="M0 0 C7.26 0 14.52 0 22 0 C22 0.99 22 1.98 22 3 C14.74 3 7.48 3 0 3 C0 2.01 0 1.02 0 0 Z " fill="#5B5758" transform="translate(14,8)"/>
<path d="M0 0 C1.98 0 3.96 0 6 0 C6 0.66 6 1.32 6 2 C13.26 2 20.52 2 28 2 C28 1.34 28 0.68 28 0 C29.98 0 31.96 0 34 0 C34 0.66 34 1.32 34 2 C34.99 2.33 35.98 2.66 37 3 C20.665 3.495 20.665 3.495 4 4 C4 3.34 4 2.68 4 2 C2.68 2 1.36 2 0 2 C0 1.34 0 0.68 0 0 Z " fill="#2C1D14" transform="translate(8,16)"/>
<path d="M0 0 C1.45880109 0.14107747 2.91703551 0.28802415 4.375 0.4375 C5.59316406 0.55931641 5.59316406 0.55931641 6.8359375 0.68359375 C9 1 9 1 11 2 C12.59262066 2.15175549 14.19064856 2.24900325 15.7890625 2.31640625 C16.73007812 2.35830078 17.67109375 2.40019531 18.640625 2.44335938 C19.62546875 2.48267578 20.6103125 2.52199219 21.625 2.5625 C22.61757813 2.60568359 23.61015625 2.64886719 24.6328125 2.69335938 C27.08839838 2.79961069 29.54408703 2.90164964 32 3 C32 3.33 32 3.66 32 4 C21.44 4 10.88 4 0 4 C0 2.68 0 1.36 0 0 Z " fill="#403E3E" transform="translate(4,19)"/>
<path d="M0 0 C0.66 0 1.32 0 2 0 C3.75163456 3.77222089 4.22490027 6.666639 4.125 10.8125 C4.10695313 11.78832031 4.08890625 12.76414062 4.0703125 13.76953125 C4.03550781 14.87361328 4.03550781 14.87361328 4 16 C3.01 16 2.02 16 1 16 C1.01160156 15.26394531 1.02320313 14.52789062 1.03515625 13.76953125 C1.04417969 12.79371094 1.05320313 11.81789063 1.0625 10.8125 C1.07410156 9.84957031 1.08570313 8.88664062 1.09765625 7.89453125 C1.00486622 5.14423487 0.62111685 2.67520409 0 0 Z " fill="#080808" transform="translate(44,9)"/>
<path d="M0 0 C-1 3 -1 3 -4 5 C-6.6875 5.125 -6.6875 5.125 -9 5 C-9 4.34 -9 3.68 -9 3 C-6.04341306 0.15291628 -4.05047276 -0.3375394 0 0 Z " fill="#444243" transform="translate(47,6)"/>
</svg>
